<?xml version="1.0" encoding="utf-8"?>
<!-- Generator: Adobe Illustrator 16.0.0, SVG Export Plug-In . SVG Version: 6.00 Build 0)  -->
<!DOCTYPE svg PUBLIC "-//W3C//DTD SVG 1.0//EN" "http://www.w3.org/TR/2001/REC-SVG-20010904/DTD/svg10.dtd">
<svg version="1.0" id="Layer_1" xmlns="http://www.w3.org/2000/svg" xmlns:xlink="http://www.w3.org/1999/xlink" x="0px" y="0px"
	 width="62.587px" height="34.115px" viewBox="0 0 62.587 34.115" enable-background="new 0 0 62.587 34.115" xml:space="preserve">
<path fill-rule="evenodd" clip-rule="evenodd" fill="#EFAE2C" d="M31.927,0c0.112,0.015,0.223,0.038,0.335,0.042
	c0.816,0.034,1.634,0.048,2.449,0.101c0.962,0.063,1.924,0.143,2.882,0.247c0.902,0.098,1.802,0.217,2.697,0.362
	c4.119,0.666,8.104,1.78,11.873,3.6c1.743,0.841,3.395,1.83,4.916,3.031c1.199,0.946,2.287,2.004,3.203,3.23
	c0.828,1.109,1.484,2.308,1.88,3.639c0.732,2.459,0.509,4.844-0.581,7.155c-0.636,1.348-1.513,2.528-2.541,3.599
	c-1.273,1.327-2.725,2.429-4.289,3.389c-1.96,1.204-4.042,2.151-6.206,2.925c-2.247,0.804-4.548,1.406-6.892,1.851
	c-1.282,0.243-2.571,0.439-3.868,0.585c-1.319,0.149-2.643,0.248-3.97,0.306c-1.191,0.053-2.382,0.062-3.574,0.043
	c-1.168-0.018-2.335-0.082-3.501-0.174c-1.109-0.088-2.214-0.207-3.314-0.364c-4.198-0.6-8.271-1.648-12.145-3.401
	c-1.908-0.863-3.72-1.892-5.389-3.164c-1.214-0.925-2.323-1.961-3.269-3.164c-0.892-1.133-1.598-2.366-2.047-3.742
	c-0.429-1.314-0.57-2.66-0.429-4.031c0.142-1.383,0.581-2.677,1.247-3.895c0.742-1.357,1.711-2.537,2.829-3.598
	c1.357-1.289,2.877-2.355,4.5-3.28c2.078-1.183,4.271-2.103,6.542-2.842c2.095-0.682,4.231-1.201,6.401-1.58
	c1.308-0.229,2.622-0.409,3.943-0.542c1.57-0.159,3.144-0.245,4.722-0.284C30.478,0.042,30.624,0.016,30.77,0
	C31.155,0,31.541,0,31.927,0z M40.521,2.244c-0.011-0.006-0.022-0.012-0.034-0.018c0.015,0.004,0.029,0.008,0.044,0.013
	c0.11,0.104,0.255,0.13,0.394,0.165c0.05,0.013,0.113,0.006,0.123-0.083c-0.063-0.018-0.126-0.043-0.191-0.052
	C40.746,2.254,40.634,2.25,40.521,2.244z M31.53,28.786c6.708-0.026,11.835-5.461,11.852-11.812
	c0.017-6.551-5.311-11.879-11.841-11.886C25.172,5.082,19.697,10.214,19.69,16.93C19.683,23.485,24.969,28.761,31.53,28.786z
	 M53.331,27.609c0.779-0.457,1.49-0.893,2.156-1.398c0-0.121,0-0.223,0-0.324c0-2.823,0-5.646,0-8.47
	c0-0.057,0.004-0.114-0.001-0.17c-0.007-0.063-0.023-0.126-0.04-0.209c-0.242,0-0.467,0-0.692,0c-0.227,0-0.454-0.005-0.68,0.001
	c-0.223,0.006-0.449-0.031-0.678,0.032c-0.023,0.373-0.046,0.733-0.068,1.094c-0.006,0.102-0.012,0.204-0.012,0.306
	c0,2.948,0,5.896,0,8.844C53.314,27.39,53.323,27.465,53.331,27.609z M7.547,17.077c0,3.137,0,6.255,0,9.385
	c0.025,0.021,0.049,0.045,0.078,0.063c0.596,0.374,1.191,0.747,1.789,1.117c0.032,0.02,0.078,0.016,0.143,0.027
	c0.001-0.151,0.004-0.274,0.004-0.397c0-2.292-0.001-4.584,0-6.876c0-1.044,0.007-2.088-0.046-3.131
	C9.512,17.2,9.5,17.135,9.493,17.077C9.197,17.022,7.875,17.021,7.547,17.077z M53.332,6.614c-0.006,0.061-0.016,0.114-0.016,0.167
	c-0.002,0.17-0.001,0.34-0.001,0.51c0,2.801,0,5.602,0,8.402c0,0.272,0.008,0.543,0.069,0.807c0.277,0.055,1.785,0.054,2.079-0.002
	c0.007-0.037,0.022-0.079,0.022-0.122c0.001-2.811,0.001-5.622,0.001-8.416c-0.36-0.303-1.674-1.162-2.039-1.334
	C53.419,6.612,53.383,6.619,53.332,6.614z M15.16,25.273c0.038-0.292,0.061-7.236,0.028-8.039c-0.002-0.054-0.016-0.108-0.023-0.161
	c-0.046-0.014-0.077-0.033-0.108-0.033c-0.68-0.001-1.36-0.001-2.04,0c-0.031,0-0.063,0.018-0.106,0.031
	c-0.052,0.128-0.031,0.265-0.031,0.398c-0.001,2.346-0.001,4.691,0,7.037c0,0.17-0.036,0.356,0.022,0.505
	c0.067,0.172,0.216,0.314,0.338,0.462c0.143,0.173,0.285,0.349,0.459,0.51C14.198,25.741,14.684,25.504,15.16,25.273z
	 M47.825,25.294c0.456,0.273,1.177,0.628,1.376,0.679c0.297-0.305,0.566-0.64,0.834-0.977c0.067-0.084,0.099-0.176,0.094-0.282
	c-0.003-0.068,0-0.136,0-0.204c0-2.345,0-4.691-0.001-7.036c0-0.133,0.024-0.271-0.042-0.42c-0.174-0.031-0.354-0.014-0.533-0.017
	c-0.192-0.002-0.385,0-0.578,0c-0.182,0-0.363-0.004-0.544,0.001c-0.189,0.005-0.381-0.022-0.575,0.024
	c-0.013,0.056-0.03,0.099-0.03,0.142C47.825,19.899,47.825,22.594,47.825,25.294z M7.548,16.531c0.25,0.003,0.463,0.006,0.677,0.007
	c0.215,0.001,0.431,0.006,0.646-0.001c0.211-0.007,0.427,0.035,0.656-0.043c0.011-0.285,0.032-0.567,0.033-0.849
	c0.002-2.913,0.001-5.826,0.001-8.739c0-0.09,0.004-0.182-0.003-0.272c-0.004-0.05-0.026-0.1-0.041-0.152
	c-0.475,0.214-1.68,0.974-1.969,1.24C7.548,10.641,7.548,13.564,7.548,16.531z M47.861,16.52c0.253,0.04,0.502,0.014,0.749,0.019
	c0.25,0.004,0.5,0.007,0.749,0c0.246-0.008,0.495,0.035,0.749-0.032c0.008-0.088,0.021-0.166,0.021-0.243
	c0.001-2.213,0.001-4.426,0.001-6.639c0-0.012-0.001-0.023,0-0.034c0.011-0.131-0.03-0.242-0.117-0.343
	c-0.237-0.275-0.466-0.557-0.702-0.833c-0.049-0.058-0.115-0.102-0.173-0.153c-0.226,0.118-0.436,0.229-0.647,0.339
	c-0.22,0.114-0.441,0.226-0.666,0.341c0,2.494,0,4.967,0.001,7.44C47.827,16.425,47.848,16.467,47.861,16.52z M15.17,16.5
	c0.006-0.098,0.019-0.197,0.019-0.296c0.001-2.29,0.001-4.581,0-6.871c0-0.088-0.014-0.176-0.021-0.263
	c-0.512-0.246-1.01-0.484-1.519-0.729c-0.206,0.204-0.368,0.423-0.552,0.621c-0.166,0.177-0.225,0.369-0.223,0.613
	c0.01,1.372,0.005,2.744,0.005,4.116c0,0.828-0.001,1.655,0.001,2.483c0,0.11-0.029,0.227,0.042,0.333
	c0.031,0.009,0.063,0.026,0.094,0.026c0.68,0.002,1.36,0.002,2.041,0C15.088,16.535,15.12,16.516,15.17,16.5z M47.317,25.069
	c0-0.175,0-0.299,0-0.423c0-1.701,0-3.402,0-5.104c0-0.726,0.001-1.452-0.001-2.178c0-0.099-0.014-0.197-0.023-0.323
	c-0.37-0.01-0.719-0.009-1.068-0.004c-0.348,0.005-0.697-0.029-1.025,0.02c-0.024,0.032-0.035,0.04-0.037,0.049
	c-0.007,0.044-0.017,0.089-0.017,0.134c0.002,2.313,0.005,4.627,0.008,6.941c0,0.011,0.002,0.023,0.007,0.033
	c0.005,0.01,0.015,0.017,0.038,0.041C45.875,24.515,46.57,24.782,47.317,25.069z M17.868,24.234c0-2.376,0-4.723-0.001-7.07
	c0-0.031-0.023-0.062-0.043-0.113c-0.229-0.03-0.466-0.011-0.701-0.015c-0.227-0.003-0.454-0.005-0.68,0.001
	c-0.235,0.006-0.472-0.031-0.709,0.031c-0.01,0.054-0.025,0.098-0.025,0.142c-0.001,2.563,0,5.125,0.001,7.688
	c0,0.032,0.018,0.063,0.033,0.119C16.445,24.757,17.143,24.5,17.868,24.234z M56.033,17.049c-0.061,0.154-0.042,0.291-0.042,0.425
	c-0.001,2.64-0.001,5.28,0,7.92c0,0.08-0.005,0.159,0.002,0.238c0.004,0.048,0.028,0.095,0.05,0.165
	c0.096-0.072,0.172-0.121,0.239-0.18c0.436-0.379,0.879-0.75,1.302-1.143c0.36-0.334,0.292-0.211,0.292-0.667
	c0.003-2.107,0.001-4.215,0.001-6.323c0-0.08,0.004-0.159-0.002-0.238c-0.005-0.063-0.022-0.126-0.036-0.197
	C57.233,17.049,56.646,17.049,56.033,17.049z M5.147,17.076C5.144,17.225,5.14,17.36,5.14,17.495c0,1.825,0,3.65,0,5.476
	c0,0.442,0.005,0.885-0.002,1.327c-0.003,0.16,0.049,0.277,0.167,0.385c0.494,0.452,1.005,0.883,1.542,1.282
	c0.041,0.03,0.093,0.043,0.172,0.077c0-2.97,0-5.905-0.001-8.841c0-0.042-0.017-0.085-0.025-0.123
	C6.722,17.023,5.512,17.019,5.147,17.076z M47.246,16.54c0.04-0.05,0.051-0.058,0.053-0.067c0.007-0.056,0.017-0.112,0.017-0.168
	c-0.001-2.345-0.004-4.69-0.007-7.035c0-0.011-0.004-0.022-0.01-0.032c-0.005-0.008-0.015-0.013-0.023-0.02
	c-0.022-0.001-0.046-0.011-0.065-0.004c-0.666,0.256-1.33,0.514-1.994,0.772c-0.02,0.008-0.034,0.029-0.072,0.063
	c0,0.093,0,0.205,0,0.317c0,0.68,0,1.359,0,2.039c0,1.247,0,2.493,0.001,3.739c0,0.121-0.021,0.247,0.047,0.394
	C45.878,16.54,46.566,16.54,47.246,16.54z M15.728,16.513c0.438,0.045,1.854,0.035,2.121-0.014c0.008-0.082,0.023-0.17,0.023-0.258
	c0.001-1.975,0.001-3.949,0-5.923c0-0.077-0.013-0.153-0.019-0.217c-0.051-0.029-0.079-0.05-0.11-0.062
	c-0.628-0.23-1.256-0.459-1.886-0.686c-0.038-0.014-0.083-0.007-0.125-0.009c-0.042,0.337-0.063,5.572-0.027,6.956
	C15.708,16.365,15.719,16.431,15.728,16.513z M7.001,8.116C6.933,8.145,6.91,8.149,6.893,8.162C6.325,8.578,5.789,9.03,5.273,9.509
	C5.184,9.592,5.133,9.682,5.139,9.805c0.004,0.08,0,0.159,0,0.238c0,2.006,0,4.012,0,6.018c0,0.091-0.004,0.182,0.003,0.272
	c0.005,0.063,0.025,0.125,0.037,0.18c0.467,0.051,1.58,0.038,1.808-0.019c0.044-0.275,0.062-4.785,0.031-8.084
	C7.019,8.322,7.009,8.234,7.001,8.116z M57.846,16.499c0.009-0.028,0.027-0.06,0.027-0.091c0.001-2.144,0.001-4.287,0.001-6.416
	c-0.355-0.413-1.388-1.331-1.79-1.591c-0.012-0.008-0.039,0.006-0.083,0.015c-0.004,0.116-0.012,0.238-0.012,0.36
	c0,2.439,0,4.877,0,7.316c0,0.08-0.005,0.159,0.002,0.238c0.006,0.064,0.026,0.128,0.039,0.186
	C56.468,16.561,57.598,16.549,57.846,16.499z M20.536,30.692c0.004-0.111,0.013-0.22,0.013-0.33
	c0.001-0.736,0.001-1.473,0.001-2.209c0-1.19-0.003-2.38,0.002-3.569c0-0.207-0.054-0.374-0.232-0.509
	c-0.646,0.148-1.285,0.33-1.908,0.533c-0.043,0.272-0.054,4.634-0.017,5.045C18.833,29.968,20.208,30.64,20.536,30.692z
	 M18.406,9.706c0.583,0.219,1.422,0.439,1.727,0.453c0.1-0.156,0.198-0.321,0.309-0.478c0.083-0.117,0.109-0.241,0.109-0.382
	c-0.002-1.847-0.001-3.694-0.003-5.541c0-0.063,0.021-0.135-0.042-0.184c-0.4,0.105-1.757,0.784-2.11,1.055
	C18.364,4.994,18.37,9.42,18.406,9.706z M44.612,24.604c-0.324-0.099-0.635-0.204-0.953-0.288c-0.314-0.083-0.618-0.214-0.946-0.225
	c-0.144,0.17-0.244,0.329-0.243,0.556c0.007,1.917,0.004,3.836,0.005,5.753c0,0.076,0.012,0.151,0.019,0.229
	c0.329-0.055,1.727-0.753,2.129-1.058C44.659,29.241,44.654,24.915,44.612,24.604z M44.619,9.639
	c0.01-0.067,0.025-0.122,0.025-0.177c0.001-1.585,0.001-3.17,0.001-4.75c-0.052-0.041-0.083-0.074-0.121-0.096
	c-0.619-0.358-1.254-0.681-1.907-0.97c-0.036-0.016-0.081-0.009-0.143-0.015c0,0.121,0,0.222,0,0.323c0,1.734,0,3.468,0,5.202
	c0,0.068-0.002,0.137,0.003,0.204c0.004,0.044,0.008,0.096,0.032,0.13c0.148,0.21,0.255,0.45,0.438,0.643
	C43.517,9.988,44.07,9.831,44.619,9.639z M10.087,17.068c-0.008,0.071-0.017,0.126-0.019,0.182c-0.03,0.785,0.037,1.561,0.203,2.331
	c0.356,1.65,1.022,3.165,1.963,4.562c0.03,0.044,0.054,0.104,0.146,0.069c0-0.118,0-0.241,0-0.365c0-2.007,0-4.014,0-6.021
	c0-0.193,0.002-0.386-0.002-0.578c-0.001-0.063-0.022-0.126-0.033-0.183C12.028,17.025,10.407,17.026,10.087,17.068z M2.759,17.063
	c-0.008,0.097-0.021,0.174-0.021,0.251c-0.001,1.326,0,2.651-0.003,3.977c0,0.153,0.038,0.286,0.116,0.417
	c0.464,0.77,1.009,1.477,1.621,2.135c0.036,0.04,0.071,0.092,0.151,0.042c0-2.235,0-4.478-0.001-6.721c0-0.03-0.02-0.062-0.03-0.088
	C4.338,17.027,3.169,17.018,2.759,17.063z M50.646,17.079c0,2.295,0,4.575,0.001,6.855c0,0.029,0.017,0.059,0.03,0.102
	c0.101-0.044,0.132-0.134,0.178-0.205c0.558-0.874,1.015-1.797,1.349-2.779c0.413-1.211,0.672-2.449,0.612-3.738
	c-0.004-0.087,0.023-0.184-0.059-0.253C52.401,17.021,50.95,17.028,50.646,17.079z M21.067,25.109
	c-0.011,0.109-0.018,0.15-0.018,0.191c0,1.881,0,3.761,0,5.651c0.306,0.156,0.615,0.265,0.926,0.365
	c0.063,0.021,0.154-0.014,0.223-0.044c0.228-0.101,0.452-0.21,0.676-0.32c0.069-0.034,0.134-0.078,0.196-0.115
	c0-1.239,0-2.462,0-3.675c-0.346-0.329-0.692-0.638-1.016-0.97C21.731,25.861,21.43,25.508,21.067,25.109z M12.343,9.998
	c-0.087,0.117-0.145,0.185-0.193,0.259c-1.112,1.692-1.821,3.535-2.06,5.551c-0.013,0.112-0.02,0.226-0.021,0.339
	c0,0.121-0.019,0.246,0.027,0.361c0.048,0.013,0.079,0.028,0.111,0.028c0.668,0.002,1.336,0.003,2.004,0
	c0.051,0,0.103-0.028,0.148-0.041C12.394,16.098,12.386,10.325,12.343,9.998z M4.594,10.233c-0.045,0.026-0.069,0.033-0.083,0.048
	c-0.644,0.677-1.207,1.415-1.685,2.217c-0.067,0.113-0.089,0.229-0.089,0.356c0.002,1.146,0,2.292,0.003,3.438
	c0,0.076,0.022,0.151,0.033,0.218c0.042,0.013,0.063,0.024,0.085,0.024c0.544,0.001,1.089,0.003,1.634,0
	c0.041,0,0.081-0.027,0.115-0.04C4.643,16.103,4.634,10.517,4.594,10.233z M52.76,13.199c0.057-0.47,0.055-0.928,0.056-1.386
	c0-0.465,0-0.93,0-1.395c0-0.453,0-0.907,0-1.36c0-0.465,0.002-0.93,0-1.395C52.812,7.2,52.83,6.736,52.803,6.276
	c-0.182-0.121-0.352-0.227-0.544-0.283c-0.268,0.233-0.519,0.462-0.781,0.679c-0.27,0.223-0.551,0.433-0.833,0.653
	c0,0.595,0.002,1.185-0.001,1.773c-0.001,0.123,0.052,0.215,0.12,0.309c0.823,1.137,1.478,2.361,1.935,3.69
	C52.711,13.134,52.739,13.165,52.76,13.199z M58.436,23.55c0.044-0.031,0.066-0.04,0.081-0.056c0.664-0.752,1.23-1.57,1.685-2.466
	c0.054-0.105,0.071-0.213,0.071-0.328c-0.001-1.146,0-2.292-0.002-3.438c0-0.064-0.018-0.128-0.026-0.187
	c-0.323-0.054-1.544-0.051-1.824,0.004c-0.008,0.071-0.024,0.147-0.025,0.224C58.35,19.214,58.374,23.222,58.436,23.55z
	 M12.379,26.73c0-0.424-0.004-0.855,0.002-1.285c0.002-0.155-0.039-0.282-0.133-0.407c-0.881-1.181-1.582-2.458-2.059-3.856
	c-0.016-0.047-0.021-0.114-0.097-0.12c-0.037,0.307-0.035,6.647,0.004,6.946c0.115,0.073,0.233,0.156,0.353,0.18
	C11.096,27.7,11.719,27.229,12.379,26.73z M52.812,27.893c0-2.268,0-4.523-0.001-6.779c0-0.013-0.025-0.025-0.055-0.054
	c-0.025,0.055-0.049,0.102-0.067,0.15c-0.103,0.264-0.198,0.531-0.307,0.792c-0.41,0.988-0.933,1.915-1.562,2.78
	c-0.126,0.175-0.184,0.349-0.178,0.564c0.012,0.431,0.002,0.862,0.004,1.292c0,0.101,0.008,0.201,0.011,0.294
	c0.272,0.212,0.531,0.415,0.791,0.615c0.268,0.206,0.496,0.458,0.782,0.659C52.427,28.1,52.615,27.999,52.812,27.893z
	 M10.119,13.252c0.038-0.095,0.073-0.175,0.102-0.256c0.451-1.269,1.078-2.444,1.862-3.537c0.053-0.074,0.102-0.151,0.161-0.219
	c0.103-0.117,0.142-0.248,0.138-0.404c-0.008-0.34-0.001-0.68-0.003-1.02c0-0.077-0.011-0.155-0.017-0.221
	c-0.04-0.033-0.064-0.057-0.093-0.075c-0.637-0.415-1.248-0.865-1.815-1.372c-0.017-0.015-0.035-0.029-0.052-0.044
	c-0.07-0.063-0.144-0.056-0.218-0.009c-0.037,0.023-0.07,0.052-0.113,0.083c0,2.338,0,4.672,0.001,7.006
	C10.073,13.199,10.093,13.214,10.119,13.252z M39.975,30.82c0.333,0.137,0.676,0.28,1.021,0.417
	c0.039,0.016,0.094,0.018,0.132,0.003c0.273-0.105,0.556-0.189,0.805-0.332c0.029-0.221,0.05-5.234,0.023-5.581
	c-0.002-0.029-0.023-0.057-0.045-0.108c-0.139,0.104-0.218,0.242-0.322,0.354c-0.101,0.107-0.195,0.221-0.294,0.329
	c-0.107,0.117-0.217,0.231-0.328,0.344s-0.225,0.224-0.34,0.333c-0.107,0.101-0.217,0.199-0.327,0.297
	c-0.117,0.105-0.236,0.208-0.339,0.299C39.924,27.637,39.935,30.542,39.975,30.82z M50.689,10.205
	c-0.025,0.089-0.042,0.119-0.042,0.148c0,2.018,0,4.037,0.002,6.055c0,0.031,0.019,0.063,0.03,0.097
	c0.034,0.011,0.064,0.029,0.096,0.029c0.635,0.002,1.27,0.003,1.905,0c0.041,0,0.081-0.028,0.122-0.044
	c0.005-0.08,0.012-0.147,0.013-0.215c0.008-0.433-0.065-0.859-0.143-1.282c-0.301-1.625-0.916-3.126-1.797-4.521
	C50.826,10.397,50.772,10.325,50.689,10.205z M21.048,3.324c0,0.146,0,0.27,0,0.393c0,1.45,0,2.899,0,4.349
	c0,0.181-0.001,0.362,0.003,0.543c0,0.035,0.023,0.07,0.046,0.134c0.231-0.265,0.433-0.508,0.646-0.739
	c0.207-0.225,0.421-0.444,0.641-0.656c0.227-0.219,0.464-0.427,0.685-0.629c0-0.998,0-1.971,0-2.961
	c-0.104-0.047-0.206-0.093-0.308-0.139c-0.279-0.125-0.56-0.246-0.836-0.375c-0.364-0.17-0.254-0.181-0.664-0.024
	C21.198,3.243,21.14,3.278,21.048,3.324z M60.249,16.496c0.007-0.071,0.021-0.148,0.021-0.225c0.001-0.928-0.001-1.857,0.003-2.785
	c0-0.152-0.035-0.288-0.105-0.422c-0.445-0.858-0.994-1.646-1.628-2.375c-0.026-0.031-0.052-0.079-0.124-0.051
	c-0.045,0.109-0.021,0.234-0.021,0.354c-0.002,1.483-0.001,2.967-0.001,4.45c0,0.294-0.001,0.589,0.002,0.883
	c0,0.063,0.02,0.127,0.029,0.183C58.817,16.559,59.985,16.551,60.249,16.496z M39.947,3.478c-0.002,0.28-0.005,0.551-0.006,0.822
	c-0.001,0.261,0,0.521,0,0.782c0,0.272-0.004,0.544,0.001,0.816c0.006,0.27-0.028,0.542,0.021,0.784
	c0.335,0.313,0.66,0.598,0.961,0.905c0.302,0.307,0.581,0.636,0.871,0.954c0.034,0.038,0.06,0.1,0.149,0.066
	c0.005-0.07,0.016-0.146,0.016-0.223c0.001-1.587,0.001-3.174,0-4.761c0-0.088-0.014-0.177-0.022-0.275
	c-0.284-0.112-0.556-0.224-0.833-0.324c-0.058-0.021-0.139-0.02-0.194,0.004C40.591,3.17,40.276,3.323,39.947,3.478z M17.837,4.965
	c-0.433,0.174-1.827,1.15-2.119,1.478c-0.041,0.688-0.025,2.049,0.026,2.302c0.566,0.282,1.785,0.72,2.107,0.752
	c0.007-0.064,0.02-0.129,0.021-0.194C17.908,7.857,17.889,5.307,17.837,4.965z M17.828,24.794c-0.73,0.242-1.429,0.495-2.095,0.796
	c-0.044,0.373-0.037,2.042,0.006,2.292c0.667,0.564,1.767,1.307,2.113,1.421c0.007-0.081,0.018-0.156,0.02-0.232
	C17.904,27.085,17.887,25.101,17.828,24.794z M45.145,29.292c0.8-0.498,1.502-0.987,2.153-1.527
	c0.036-0.427,0.026-1.872-0.014-2.135c-0.617-0.291-1.263-0.532-1.911-0.768c-0.061-0.022-0.128-0.028-0.208-0.046
	c-0.008,0.074-0.02,0.128-0.02,0.182C45.145,26.401,45.145,27.804,45.145,29.292z M45.161,5.034
	c-0.04,0.625-0.026,4.127,0.018,4.401c0.376-0.086,0.727-0.24,1.081-0.38c0.355-0.14,0.714-0.272,1.037-0.451
	c0.033-0.396,0.027-1.835-0.007-2.091c-0.404-0.383-1.608-1.21-1.98-1.425C45.273,5.067,45.231,5.059,45.161,5.034z M15.189,6.145
	c0-0.63,0-1.276,0-1.922c0-0.057-0.005-0.113-0.009-0.17c0-0.01-0.009-0.021-0.016-0.029c-0.007-0.008-0.016-0.013-0.024-0.019
	c-0.416,0.08-1.976,0.675-2.242,0.856c-0.036,0.418-0.026,2.195,0.017,2.463c0.199,0.121,0.401,0.262,0.62,0.352
	C14.091,7.16,14.632,6.66,15.189,6.145z M47.85,4.083c-0.013,0.107-0.026,0.172-0.027,0.237c-0.001,0.578,0.003,1.155-0.004,1.733
	c-0.002,0.162,0.055,0.271,0.175,0.379c0.38,0.339,0.748,0.691,1.122,1.037c0.048,0.044,0.104,0.077,0.169,0.125
	c0.285-0.182,0.56-0.357,0.817-0.522c0.043-0.386,0.036-1.843-0.011-2.117C49.38,4.639,48.641,4.359,47.85,4.083z M13.588,26.639
	c-0.259,0.139-0.491,0.257-0.699,0.429c0,0.746,0,1.492,0,2.239c0.043,0.029,0.077,0.061,0.118,0.077
	c0.677,0.257,1.354,0.513,2.032,0.767c0.036,0.014,0.082,0.001,0.137,0.001c0-0.695,0-1.372,0-2.052
	c-0.266-0.235-0.532-0.464-0.79-0.701C14.121,27.154,13.863,26.901,13.588,26.639z M47.858,30.075
	c0.783-0.277,1.523-0.553,2.237-0.873c0.047-0.302,0.046-1.737-0.002-2.036c-0.265-0.158-0.518-0.367-0.819-0.489
	c-0.041,0.029-0.07,0.045-0.095,0.068c-0.407,0.376-0.812,0.757-1.222,1.129c-0.092,0.083-0.136,0.171-0.135,0.294
	c0.003,0.578,0.001,1.155,0.003,1.733C47.825,29.944,47.84,29.987,47.858,30.075z M26.408,4.185c0.18,0.116,0.369,0.103,0.541,0.15
	c0.189,0.052,0.375,0.032,0.565-0.03c0.179-0.058,0.329-0.141,0.454-0.28c0.098-0.109,0.202-0.215,0.311-0.313
	c0.119-0.105,0.166-0.228,0.164-0.388c-0.008-0.521-0.002-1.041-0.004-1.562c0-0.065-0.011-0.13-0.017-0.19
	C28.008,1.504,26.88,1.631,26.41,1.8C26.404,2.591,26.408,3.392,26.408,4.185z M34.593,1.571c0,0.652,0,1.262,0,1.895
	c0.219,0.222,0.449,0.455,0.678,0.688c0.104,0.105,0.222,0.143,0.37,0.106c0.263-0.064,0.529-0.117,0.794-0.178
	c0.053-0.012,0.103-0.038,0.159-0.059c0.008-0.054,0.021-0.097,0.021-0.14c0.001-0.645,0.001-1.289-0.001-1.934
	c0-0.052-0.022-0.105-0.036-0.164C35.924,1.665,35.284,1.54,34.593,1.571z M36.591,32.449c0.047-0.458,0.035-1.863-0.019-2.124
	c-0.505-0.118-1.021-0.234-1.5-0.29c-0.186,0.162-0.339,0.295-0.471,0.41c-0.045,0.624-0.029,1.889,0.027,2.15
	c0.072,0.002,0.149,0.013,0.225,0.006C35.427,32.55,36.004,32.54,36.591,32.449z M26.427,30.292c-0.04,0.504-0.029,1.921,0.016,2.18
	c0.04,0.01,0.082,0.027,0.125,0.03c0.577,0.041,1.153,0.08,1.729,0.117c0.04,0.002,0.081-0.023,0.139-0.041
	c0-0.52,0.001-1.028-0.003-1.537c0-0.052-0.024-0.115-0.06-0.152c-0.272-0.287-0.544-0.574-0.83-0.849
	C27.163,30.122,26.793,30.166,26.427,30.292z M39.426,27.618c-0.206,0.104-0.333,0.214-0.472,0.304
	c-0.153,0.098-0.304,0.199-0.458,0.294c-0.145,0.09-0.291,0.176-0.439,0.26c-0.158,0.089-0.317,0.174-0.478,0.259
	c-0.149,0.079-0.3,0.155-0.464,0.239c0,0.167-0.005,0.325,0.001,0.482c0.007,0.156-0.033,0.317,0.034,0.464
	c0.732,0.223,1.458,0.443,2.183,0.663c0.018,0.005,0.042-0.008,0.093-0.019C39.426,29.609,39.426,28.648,39.426,27.618z
	 M23.635,30.6c0.048-0.009,0.094-0.011,0.134-0.027c0.645-0.248,1.301-0.463,1.967-0.646c0.051-0.014,0.098-0.046,0.148-0.071
	c0.01-0.319,0.036-0.621-0.017-0.926c-0.159-0.083-0.31-0.161-0.459-0.24c-0.15-0.08-0.3-0.159-0.448-0.243
	c-0.157-0.09-0.313-0.184-0.466-0.28c-0.144-0.09-0.284-0.187-0.427-0.279c-0.139-0.09-0.264-0.205-0.412-0.274
	c-0.029,0.035-0.054,0.051-0.054,0.067c-0.003,0.94-0.005,1.88-0.004,2.82C23.598,30.532,23.62,30.562,23.635,30.6z M31.075,32.703
	c0.019-0.066,0.03-0.087,0.03-0.109c0.001-0.759,0.002-1.518,0-2.276c0-0.041-0.025-0.082-0.039-0.122
	c-0.362-0.033-0.71-0.068-1.059-0.094c-0.347-0.025-0.685-0.122-1.048-0.138c-0.035,0.176-0.01,0.335-0.024,0.491
	c-0.018,0.196,0.05,0.339,0.192,0.477c0.538,0.519,1.064,1.049,1.596,1.575c0.048,0.048,0.092,0.104,0.149,0.138
	C30.925,32.676,30.994,32.681,31.075,32.703z M23.606,3.405c0.735,0.289,1.477,0.511,2.251,0.691
	c0.016-0.09,0.037-0.154,0.038-0.219c0.002-0.61,0.002-1.221-0.001-1.832c0-0.052-0.023-0.104-0.035-0.153
	c-0.481,0.037-1.928,0.399-2.261,0.567c-0.002,0.202-0.006,0.416-0.006,0.629C23.592,3.19,23.601,3.291,23.606,3.405z
	 M18.413,19.001c-0.049,0.391-0.043,4.763-0.009,5.035c0.03,0.002,0.065,0.015,0.094,0.007c0.512-0.142,1.024-0.286,1.572-0.44
	c-0.408-0.732-0.756-1.466-1.03-2.234C18.766,20.598,18.58,19.806,18.413,19.001z M44.611,24.022
	c0.005-0.01,0.014-0.018,0.016-0.028c0.007-0.033,0.017-0.066,0.017-0.099c0.001-1.506,0-3.013,0-4.519
	c0-0.011-0.002-0.023-0.008-0.032c-0.003-0.005-0.017-0.003-0.04-0.007c-0.022,0.071-0.049,0.144-0.066,0.218
	c-0.039,0.165-0.07,0.332-0.11,0.497c-0.276,1.151-0.705,2.243-1.272,3.282c-0.046,0.084-0.125,0.16-0.102,0.281
	c0.469,0.138,0.935,0.276,1.401,0.412c0.042,0.012,0.088,0.008,0.132,0.009C44.59,24.036,44.601,24.027,44.611,24.022z
	 M34.046,29.971c-0.406,0.051-0.799,0.094-1.189,0.152c-0.4,0.06-0.809,0.021-1.205,0.088c-0.015,0.053-0.032,0.085-0.032,0.117
	c-0.002,0.725-0.002,1.451,0,2.176c0,0.036,0.03,0.071,0.045,0.107c0.041-0.019,0.065-0.023,0.08-0.037
	c0.743-0.732,1.484-1.466,2.228-2.197C34.082,30.269,34.104,30.148,34.046,29.971z M47.316,5.853c0-0.385,0.005-0.7-0.001-1.014
	c-0.006-0.313,0.028-0.627-0.023-0.931c-0.592-0.25-1.85-0.615-2.119-0.617c-0.044,0.313-0.04,0.856,0.011,1.11
	c0.348,0.226,0.702,0.449,1.048,0.684C46.575,5.319,46.911,5.566,47.316,5.853z M39.425,6.279c0-0.353,0-0.624,0-0.894
	c0-0.284,0.003-0.567,0-0.851c-0.004-0.268,0.021-0.537-0.023-0.831c-0.397,0.136-0.772,0.26-1.144,0.392
	c-0.371,0.132-0.76,0.209-1.138,0.363c0,0.156-0.024,0.3,0.021,0.462C37.92,5.283,38.656,5.725,39.425,6.279z M15.739,5.707
	c0.722-0.482,1.416-0.946,2.13-1.423c0-0.328,0.001-0.667-0.002-1.005c0-0.03-0.024-0.059-0.046-0.109
	c-0.356,0.068-0.698,0.182-1.042,0.285c-0.355,0.106-0.717,0.192-1.047,0.342C15.693,4.14,15.697,5.415,15.739,5.707z M34.013,3.902
	c0.066-0.154,0.072-0.196,0.027-0.257c-0.033-0.045-0.074-0.085-0.114-0.125c-0.144-0.144-0.288-0.288-0.434-0.43
	c-0.503-0.489-1.007-0.978-1.513-1.464c-0.064-0.062-0.139-0.113-0.214-0.161c-0.048-0.03-0.125,0.009-0.134,0.063
	c-0.01,0.055-0.016,0.111-0.017,0.167c0,0.577-0.001,1.154,0.001,1.731c0,0.077,0.019,0.153,0.032,0.249
	C32.452,3.685,33.236,3.777,34.013,3.902z M37.114,1.927c0,0.114,0,0.203,0,0.292c0.004,0.532,0.008,1.065,0.014,1.597
	c0,0.01,0.005,0.023,0.012,0.031c0.007,0.008,0.019,0.011,0.029,0.016c0.441-0.056,1.88-0.542,2.257-0.769
	c0-0.088,0.001-0.189,0-0.291c-0.001-0.112-0.005-0.223-0.008-0.324C38.94,2.285,37.492,1.933,37.114,1.927z M17.844,30.978
	c0.011-0.066,0.026-0.119,0.027-0.172c0.003-0.204-0.006-0.409,0.004-0.612c0.009-0.167-0.053-0.269-0.199-0.354
	c-0.618-0.359-1.208-0.763-1.783-1.188c-0.043-0.032-0.082-0.082-0.181-0.049c-0.014,0.188-0.006,0.388-0.007,0.588
	c-0.001,0.192-0.005,0.386,0.001,0.578c0.005,0.201-0.027,0.404,0.027,0.611c0.655,0.226,1.309,0.408,1.963,0.589
	C17.738,30.979,17.783,30.975,17.844,30.978z M45.144,29.914c0,0.165-0.003,0.323,0.001,0.481c0.005,0.164-0.024,0.332,0.025,0.493
	c0.46-0.075,1.798-0.488,2.119-0.65c0.045-0.341,0.039-1.491-0.015-1.77C46.57,28.947,45.873,29.42,45.144,29.914z M25.849,32.402
	c0.083-0.224,0.04-0.44,0.046-0.651c0.007-0.226,0.007-0.452,0-0.678c-0.007-0.208,0.039-0.422-0.041-0.624
	c-0.528,0.077-1.934,0.567-2.247,0.782c0,0.195,0,0.396,0,0.615C24.346,32.085,25.091,32.252,25.849,32.402z M37.149,30.505
	c-0.051,0.309-0.047,1.578,0.006,1.838c0.041,0.002,0.087,0.015,0.128,0.005c0.636-0.154,1.272-0.31,1.907-0.468
	c0.075-0.019,0.145-0.054,0.235-0.087c-0.019-0.218,0.041-0.43-0.041-0.642c-0.696-0.254-1.395-0.475-2.108-0.651
	C37.236,30.491,37.19,30.503,37.149,30.505z M18.408,10.294c-0.04,0.25-0.062,3.805-0.027,4.483
	c0.001,0.023,0.014,0.047,0.039,0.123c0.071-0.345,0.124-0.633,0.191-0.918c0.067-0.287,0.143-0.572,0.228-0.854
	c0.084-0.282,0.178-0.562,0.281-0.837s0.226-0.544,0.334-0.818c0.108-0.271,0.279-0.515,0.362-0.796
	C19.518,10.546,18.617,10.303,18.408,10.294z M44.642,14.571c0-1.423,0-2.837-0.001-4.251c0-0.031-0.019-0.062-0.031-0.101
	c-0.167-0.025-0.308,0.062-0.458,0.101c-0.164,0.042-0.326,0.094-0.488,0.144c-0.147,0.044-0.306,0.06-0.452,0.158
	c0.027,0.065,0.044,0.117,0.069,0.165c0.587,1.132,1.015,2.32,1.256,3.573C44.552,14.433,44.561,14.514,44.642,14.571z
	 M23.625,6.271c0.393-0.253,0.747-0.495,1.114-0.715c0.369-0.22,0.75-0.418,1.123-0.624c0.042-0.106,0.053-0.203-0.002-0.281
	c-0.708-0.217-1.401-0.43-2.094-0.642c-0.032-0.01-0.065-0.013-0.099-0.017C23.656,3.992,23.645,3.997,23.619,4
	c-0.009,0.05-0.024,0.104-0.027,0.158C23.568,4.725,23.585,5.986,23.625,6.271z M31.099,1.703c-0.093,0.071-0.139,0.101-0.178,0.138
	c-0.611,0.592-1.222,1.185-1.832,1.777c-0.041,0.04-0.081,0.08-0.114,0.126C28.94,3.791,28.924,3.844,29,3.91
	c0.329-0.048,0.674-0.104,1.021-0.146c0.355-0.044,0.717-0.039,1.078-0.112C31.099,3.009,31.099,2.389,31.099,1.703z M1.523,17.038
	c-0.009,0.114-0.023,0.191-0.02,0.267c0.037,1.016,0.244,1.995,0.623,2.938c0.015,0.038,0.034,0.087,0.108,0.074
	c0-1.049,0-2.1-0.001-3.151c0-0.031-0.019-0.062-0.034-0.105c-0.042-0.008-0.085-0.021-0.127-0.022
	C1.901,17.036,1.732,17.038,1.523,17.038z M10.826,5.777c0.452,0.453,1.223,1.024,1.515,1.132c0.049-0.254,0.055-1.494,0.006-1.823
	c-0.054,0.012-0.111,0.015-0.159,0.037C11.74,5.328,11.283,5.517,10.826,5.777z M20.507,2.526c-0.711,0.141-1.415,0.294-2.1,0.487
	c-0.053,0.399-0.044,0.735,0.025,0.958c0.7-0.34,1.399-0.68,2.103-1.021C20.55,2.81,20.57,2.677,20.507,2.526z M44.635,3.102
	c-0.719-0.192-1.415-0.364-2.141-0.505c-0.022,0.158-0.033,0.289-0.001,0.411c0.029,0.024,0.044,0.042,0.063,0.051
	c0.637,0.316,1.274,0.632,1.914,0.945c0.045,0.022,0.101,0.024,0.165,0.039C44.635,3.727,44.635,3.435,44.635,3.102z M32.399,32.656
	c0.47,0.057,1.36,0.022,1.649-0.056c0.009-0.028,0.027-0.059,0.027-0.091c0.001-0.453,0-0.906-0.003-1.358
	c0-0.024-0.033-0.048-0.063-0.091C33.478,31.586,32.958,32.102,32.399,32.656z M20.536,31.333c-0.027-0.024-0.042-0.044-0.061-0.054
	c-0.651-0.317-1.303-0.635-1.957-0.949c-0.035-0.017-0.082-0.01-0.132-0.015c-0.006,0.286-0.033,0.555,0.019,0.837
	c0.283,0.07,0.556,0.144,0.831,0.205c0.409,0.09,0.819,0.172,1.229,0.255c0.017,0.004,0.039-0.017,0.071-0.033
	C20.536,31.499,20.536,31.412,20.536,31.333z M30.548,1.491c-0.246-0.052-0.414-0.021-0.581-0.019
	c-0.169,0.002-0.339,0.005-0.509,0.016c-0.165,0.011-0.336-0.02-0.504,0.05c-0.006,0.065-0.017,0.121-0.016,0.175
	c0.003,0.407,0.007,0.814,0.013,1.221c0,0.006,0.017,0.012,0.036,0.024c0.022-0.009,0.058-0.014,0.079-0.034
	C29.545,2.462,30.023,1.999,30.548,1.491z M1.568,16.497c0.286,0.064,0.438,0.06,0.649-0.018c0.035-0.373,0.027-2.377-0.011-2.63
	C1.901,14.227,1.497,15.907,1.568,16.497z M12.336,27.441c-0.138,0.031-0.235,0.126-0.342,0.201
	c-0.121,0.084-0.238,0.172-0.355,0.261c-0.108,0.082-0.217,0.164-0.319,0.252c-0.107,0.092-0.237,0.164-0.305,0.289
	c0.028,0.036,0.038,0.061,0.056,0.069c0.389,0.183,0.778,0.364,1.169,0.542c0.034,0.015,0.081,0.002,0.121,0.002
	C12.401,28.561,12.389,27.709,12.336,27.441z M42.508,31.545c0.363-0.031,0.707-0.136,1.054-0.219
	c0.359-0.085,0.725-0.149,1.083-0.293c0-0.228,0.002-0.441-0.001-0.655c-0.001-0.049-0.024-0.097-0.041-0.159
	c-0.72,0.355-1.415,0.698-2.126,1.049c0,0.056-0.003,0.111,0.001,0.166C42.48,31.465,42.494,31.497,42.508,31.545z M32.618,1.47
	c0.207,0.281,1.204,1.249,1.437,1.404c0.055-0.357,0.015-0.705,0.025-1.05c0.002-0.099,0.024-0.206-0.077-0.315
	C33.574,1.497,33.124,1.484,32.618,1.47z M14.046,7.937c0.339,0.227,0.853,0.467,1.12,0.523c0.007-0.043,0.021-0.085,0.021-0.127
	c0-0.452-0.003-0.904-0.007-1.356c0-0.017-0.023-0.033-0.036-0.049C14.892,7.072,14.365,7.553,14.046,7.937z M15.158,27.366
	c0.044-0.335,0.042-1.209-0.002-1.487c-0.042,0.006-0.089,0.003-0.127,0.02c-0.316,0.146-0.635,0.289-0.936,0.47
	C14.308,26.656,14.853,27.167,15.158,27.366z M51.735,5.72c-0.157-0.111-0.334-0.186-0.508-0.259
	c-0.182-0.077-0.344-0.215-0.583-0.208c0,0.123-0.001,0.234,0,0.346c0.004,0.327,0.009,0.653,0.017,0.98
	c0,0.012,0.033,0.022,0.051,0.034C51.106,6.356,51.55,5.972,51.735,5.72z M28.988,31.544c-0.016,0.028-0.045,0.054-0.045,0.081
	c0.001,0.334-0.03,0.67,0.018,1.011c0.06,0.013,0.102,0.03,0.145,0.031c0.315,0.006,0.63,0.01,0.946,0.013
	c0.01,0,0.021-0.006,0.028-0.014c0.007-0.008,0.008-0.021,0.012-0.031C29.92,32.414,29.208,31.708,28.988,31.544z M51.661,28.445
	c-0.22-0.272-0.709-0.674-0.974-0.801c-0.054,0.232-0.062,0.924-0.014,1.263C50.93,28.861,51.444,28.621,51.661,28.445z
	 M47.874,27.231c0.255-0.149,0.731-0.601,0.89-0.846c-0.306-0.212-0.657-0.385-0.892-0.44
	C47.801,26.198,47.802,26.999,47.874,27.231z M47.821,7.01c0.011,0.448-0.022,0.868,0.022,1.292
	c0.259-0.046,0.663-0.249,0.901-0.444C48.556,7.595,48.114,7.181,47.821,7.01z M60.824,17.053c-0.015,0.051-0.033,0.082-0.033,0.114
	c-0.001,0.701,0,1.401,0.002,2.102c0,0.016,0.02,0.032,0.03,0.048c0.061-0.011,0.058-0.066,0.068-0.104
	c0.185-0.656,0.267-1.328,0.282-2.007c0.001-0.051-0.028-0.104-0.046-0.167C61.017,17.043,60.92,17.048,60.824,17.053z
	 M61.116,16.525c0.041-0.428-0.109-1.291-0.289-1.705c-0.012,0.016-0.032,0.03-0.032,0.044c0,0.531,0.002,1.061,0.006,1.591
	c0,0.019,0.022,0.037,0.041,0.069C60.921,16.525,61.008,16.525,61.116,16.525z M36.603,29.202c-0.304,0.108-0.57,0.2-0.833,0.297
	c-0.043,0.016-0.077,0.055-0.145,0.106c0.349,0.06,0.646,0.166,0.978,0.167C36.603,29.584,36.603,29.417,36.603,29.202z
	 M22.291,2.836c0.274,0.16,0.502,0.262,0.749,0.333c0.057-0.3,0.056-0.338-0.021-0.576C22.799,2.667,22.579,2.74,22.291,2.836z
	 M26.419,29.753c0.24-0.054,0.444-0.099,0.654-0.146c-0.113-0.204-0.111-0.218-0.216-0.259c-0.138-0.054-0.267-0.155-0.438-0.123
	C26.419,29.396,26.419,29.551,26.419,29.753z M50.105,7.687c-0.15,0.089-0.256,0.15-0.36,0.214c-0.037,0.023-0.067,0.057-0.1,0.085
	c0.216,0.316,0.26,0.363,0.464,0.485C50.141,8.22,50.14,7.979,50.105,7.687z M49.634,26.263c0.099,0.068,0.161,0.118,0.229,0.155
	c0.075,0.042,0.136,0.123,0.239,0.095c0.051-0.365,0.044-0.527-0.042-0.737C49.92,25.936,49.789,26.086,49.634,26.263z
	 M22.458,2.229c-0.003-0.011-0.006-0.022-0.01-0.033c-0.073,0-0.147-0.01-0.218,0.002c-0.234,0.037-0.468,0.081-0.701,0.126
	c-0.036,0.007-0.068,0.035-0.113,0.059c0.209,0.145,0.211,0.149,0.289,0.123c0.193-0.064,0.385-0.133,0.576-0.202
	C22.341,2.282,22.399,2.254,22.458,2.229z M12.89,26.419c0.146-0.046,0.24-0.09,0.319-0.188c-0.091-0.117-0.155-0.244-0.319-0.302
	C12.89,26.097,12.89,26.238,12.89,26.419z M12.93,7.949c-0.057,0.218-0.057,0.218,0.01,0.388c0.086-0.073,0.172-0.137,0.208-0.272
	C13.076,8.026,13.005,7.989,12.93,7.949z M21.086,31.553c-0.024,0.151-0.022,0.163,0.021,0.187c0.101,0.057,0.189,0.046,0.266-0.057
	C21.299,31.584,21.195,31.567,21.086,31.553z M28.24,29.945c-0.009,0.024-0.018,0.049-0.026,0.074
	c0.043,0.033,0.086,0.068,0.131,0.1c0.046,0.032,0.092,0.011,0.087-0.045c-0.005-0.05-0.016-0.117-0.049-0.142
	C28.354,29.911,28.289,29.939,28.24,29.945z M41.608,2.666c0.157,0.054,0.234,0.081,0.331,0.115c0-0.102,0-0.175,0-0.281
	C41.837,2.551,41.762,2.588,41.608,2.666z M39.962,31.623c0.121-0.019,0.226-0.011,0.297-0.132c-0.099-0.038-0.186-0.07-0.297-0.113
	C39.962,31.469,39.962,31.531,39.962,31.623z M39.961,2.67c0,0.06,0,0.121,0,0.186c0.12,0.018,0.2-0.032,0.275-0.101
	C40.167,2.673,40.081,2.643,39.961,2.67z M23.06,31.44c-0.097,0.043-0.172,0.076-0.25,0.111c0.063,0.105,0.142,0.12,0.25,0.097
	C23.06,31.589,23.06,31.529,23.06,31.44z M41.789,31.567c0.045,0.042,0.082,0.118,0.154,0.039c0.011-0.012,0.011-0.049,0-0.062
	C41.881,31.464,41.834,31.516,41.789,31.567z M36.582,4.607c-0.004-0.006-0.007-0.017-0.013-0.019
	c-0.007-0.003-0.018,0.001-0.026,0.002c0.006,0.01,0.011,0.021,0.018,0.029C36.562,4.621,36.575,4.611,36.582,4.607z"/>
<path fill-rule="evenodd" clip-rule="evenodd" fill="#EFAE2C" d="M40.532,2.239c-0.015-0.004-0.03-0.009-0.044-0.013
	c0.011,0.006,0.022,0.012,0.035,0.017C40.522,2.242,40.532,2.239,40.532,2.239z"/>
<path fill-rule="evenodd" clip-rule="evenodd" fill="#EFAE2C" d="M24.998,24.747c0-0.319,0-0.601,0-0.868
	c0.078-0.103,0.174-0.082,0.262-0.083c0.363-0.002,0.726-0.003,1.089,0.002c0.143,0.002,0.259-0.031,0.368-0.135
	c1.022-0.982,2.05-1.96,3.076-2.939c0.016-0.016,0.026-0.037,0.052-0.073c-0.036-0.045-0.068-0.103-0.116-0.143
	c-1.025-0.861-2.052-1.719-3.076-2.582c-0.121-0.103-0.248-0.143-0.403-0.14c-0.317,0.006-0.635,0-0.953,0c-0.113,0-0.225,0-0.339,0
	c-0.096-0.174-0.056-0.347-0.059-0.512c-0.003-0.156-0.032-0.316,0.033-0.486c0.074-0.008,0.15-0.024,0.227-0.024
	c0.976-0.002,1.952,0.001,2.927-0.004c0.159-0.001,0.279,0.046,0.396,0.152c0.418,0.383,0.843,0.759,1.266,1.137
	c0.083,0.075,0.171,0.145,0.28,0.236c0.023-0.059,0.049-0.094,0.051-0.13c0.006-0.113,0.004-0.227,0.004-0.34
	c0-3.188,0-6.376,0-9.564c0-0.135,0.003-0.27,0.006-0.416c0.083-0.015,0.147-0.038,0.211-0.037c1.611,0.004,3.222-0.023,4.833,0.04
	c1.035,0.041,1.923,0.434,2.662,1.137c0.942,0.895,1.345,2.005,1.151,3.299c-0.239,1.587-1.12,2.668-2.636,3.213
	c-0.496,0.178-1.021,0.208-1.542,0.229c-0.578,0.024-1.157,0.022-1.735,0.033c-0.111,0.002-0.226-0.016-0.34,0.038
	c-0.01,0.045-0.027,0.088-0.027,0.131c0,0.771,0.003,1.542,0.007,2.313c0,0.017,0.022,0.034,0.047,0.068
	c0.131-0.064,0.217-0.185,0.321-0.281c0.108-0.1,0.212-0.205,0.317-0.308c0.114-0.111,0.228-0.222,0.341-0.333
	c0.105-0.103,0.211-0.206,0.317-0.309c0.105-0.102,0.212-0.203,0.307-0.292c0.661-0.039,2.875-0.024,3.144,0.02
	c0.06,0.243,0.067,0.601,0.017,0.952c-0.169,0.051-0.35,0.02-0.528,0.024c-0.17,0.005-0.34,0-0.511,0c-0.181,0-0.362,0-0.556,0
	c-0.942,0.948-1.883,1.896-2.819,2.838c0.163,0.245,2.396,2.642,2.865,3.081c0.496,0,1.015,0,1.528,0
	c0.064,0.251,0.07,0.621,0.017,0.972c-0.072,0.009-0.148,0.028-0.224,0.028c-0.93,0.002-1.861-0.001-2.791,0.004
	c-0.147,0.001-0.258-0.041-0.362-0.145c-0.371-0.367-0.748-0.729-1.123-1.091c-0.08-0.077-0.164-0.149-0.261-0.237
	c-0.086,0.119-0.05,0.234-0.055,0.34c-0.006,0.125-0.001,0.25-0.001,0.375c0,0.113,0.001,0.227,0,0.34
	c-0.002,0.112-0.009,0.223-0.012,0.31c-0.027,0.031-0.033,0.042-0.042,0.048c-0.009,0.006-0.021,0.011-0.032,0.011
	c-0.76,0.005-1.52,0.01-2.279,0.014c-0.055,0-0.11-0.01-0.172-0.016c-0.072-0.146-0.036-0.294-0.042-0.438
	c-0.006-0.136-0.001-0.272-0.001-0.408c0-0.146,0-0.292,0-0.426c-0.104-0.061-0.147,0.009-0.193,0.052
	c-0.408,0.377-0.82,0.75-1.22,1.137c-0.149,0.145-0.3,0.209-0.511,0.207c-0.942-0.011-1.884-0.004-2.825-0.005
	C25.231,24.763,25.131,24.753,24.998,24.747z M32.687,10.118c-0.01,0.08-0.025,0.145-0.025,0.21
	c-0.001,0.974-0.001,1.948,0.001,2.922c0,0.063,0.023,0.124,0.037,0.191c0.078,0.007,0.133,0.017,0.188,0.016
	c0.498-0.005,0.996-0.013,1.494-0.021c0.298-0.004,0.584-0.072,0.865-0.161c0.442-0.14,0.778-0.421,0.986-0.832
	c0.279-0.552,0.251-1.097-0.124-1.599c-0.237-0.317-0.556-0.533-0.95-0.612c-0.21-0.043-0.423-0.085-0.637-0.096
	c-0.531-0.025-1.063-0.033-1.595-0.045C32.851,10.09,32.774,10.108,32.687,10.118z"/>
<path fill-rule="evenodd" clip-rule="evenodd" fill="#EFAE2C" d="M28.153,10.776c0.064,0.062,0.119,0.101,0.155,0.153
	c0.182,0.258,0.258,0.551,0.276,0.862c0.02,0.354-0.033,0.701-0.1,1.046c-0.045,0.233-0.1,0.465-0.143,0.699
	c-0.021,0.111-0.027,0.225-0.036,0.337c-0.001,0.016,0.021,0.033,0.047,0.068c0.092-0.069,0.133-0.177,0.202-0.26
	c0.072-0.087,0.142-0.178,0.223-0.256c0.073-0.07,0.157-0.13,0.242-0.187c0.091-0.061,0.188-0.113,0.324-0.193
	c-0.016,0.101-0.016,0.156-0.034,0.205c-0.195,0.525-0.303,1.069-0.318,1.628c-0.016,0.563-0.281,0.945-0.799,1.148
	c-0.337,0.132-0.68,0.249-1.021,0.371c-0.103,0.037-0.196,0.02-0.285-0.051c-0.55-0.439-1.094-0.885-1.54-1.434
	c-0.142-0.175-0.269-0.366-0.379-0.563c-0.235-0.415-0.275-0.861-0.147-1.316c0.07-0.25,0.167-0.493,0.27-0.732
	c0.174-0.406,0.369-0.803,0.541-1.21c0.338-0.797,0.563-1.626,0.663-2.488c0.01-0.088,0.035-0.175,0.056-0.275
	c0.042,0.028,0.078,0.04,0.095,0.064c0.374,0.558,0.698,1.14,0.858,1.8c0.104,0.426,0.1,0.854,0.028,1.282
	c-0.043,0.257-0.097,0.512-0.139,0.77c-0.028,0.176-0.043,0.354,0.014,0.524c0.121,0.01,0.121-0.08,0.143-0.131
	c0.217-0.499,0.428-1,0.642-1.5C28.037,11.024,28.09,10.914,28.153,10.776z"/>
</svg>
